<svg id="svg" version="1.1" xmlns="http://www.w3.org/2000/svg" xmlns:xlink="http://www.w3.org/1999/xlink" width="400" height="398.85057471264366" viewBox="0, 0, 400,398.85057471264366"><g id="svgg"><path id="path0" d="M98.755 97.989 L 0.766 195.978 0.766 197.625 C 0.766 198.531,1.014 199.737,1.316 200.306 C 1.936 201.472,196.917 396.534,197.511 396.583 C 197.721 396.601,198.399 396.697,199.018 396.797 C 200.076 396.969,205.982 391.142,298.757 298.394 L 397.371 199.808 397.205 197.944 L 397.039 196.080 298.997 98.040 L 200.955 0.000 198.849 0.000 L 196.743 0.000 98.755 97.989 M391.086 198.199 C 391.030 198.367,347.798 241.687,295.016 294.466 L 199.047 390.427 102.880 294.259 L 6.712 198.091 102.877 101.929 L 199.042 5.768 295.115 101.830 C 347.955 154.664,391.142 198.030,391.086 198.199 M189.272 203.568 C 189.272 203.634,189.832 204.194,190.517 204.813 L 191.762 205.939 190.637 204.693 C 189.588 203.533,189.272 203.272,189.272 203.568 M142.647 278.064 C 145.346 278.130,149.656 278.130,152.225 278.064 C 154.795 277.998,152.586 277.944,147.318 277.944 C 142.050 277.944,139.948 277.998,142.647 278.064 " stroke="none" fill="#dce4e4" fill-rule="evenodd"></path><path id="path1" d="M272.605 110.463 C 272.184 110.714,271.701 111.135,271.533 111.398 C 271.364 111.662,271.019 111.878,270.766 111.879 C 270.513 111.880,269.444 112.535,268.389 113.335 C 266.565 114.718,265.715 115.200,265.010 115.251 C 264.837 115.264,264.298 115.703,263.812 116.227 C 263.159 116.932,262.816 117.069,262.498 116.751 C 262.181 116.434,262.069 116.487,262.069 116.955 C 262.069 117.610,259.437 119.623,257.986 120.077 C 257.531 120.219,257.061 120.590,256.942 120.902 C 256.822 121.213,256.332 121.645,255.853 121.861 C 254.326 122.551,253.162 123.289,252.879 123.746 C 252.638 124.137,251.905 124.399,250.798 124.492 C 250.605 124.508,250.559 124.633,250.695 124.770 C 250.954 125.028,249.531 126.437,249.011 126.437 C 248.847 126.437,248.439 126.711,248.104 127.047 C 247.769 127.382,247.282 127.687,247.023 127.725 C 246.764 127.763,246.552 127.913,246.552 128.057 C 246.552 128.446,245.069 129.460,244.770 129.275 C 244.628 129.187,244.024 129.634,243.426 130.267 C 242.829 130.900,242.202 131.418,242.034 131.418 C 241.865 131.418,241.297 131.849,240.770 132.375 C 240.243 132.902,239.475 133.333,239.063 133.333 C 238.651 133.333,238.314 133.529,238.314 133.767 C 238.314 134.399,236.713 135.688,236.181 135.484 C 235.932 135.388,235.544 135.712,235.320 136.204 C 235.096 136.696,234.529 137.220,234.060 137.369 C 233.590 137.518,232.803 138.120,232.309 138.707 C 231.653 139.485,231.180 139.716,230.552 139.562 C 230.080 139.446,229.803 139.471,229.937 139.618 C 230.180 139.887,227.909 142.529,227.435 142.529 C 227.296 142.529,226.577 143.080,225.836 143.754 C 225.096 144.427,224.199 145.022,223.842 145.074 C 223.486 145.126,223.130 145.360,223.052 145.595 C 222.809 146.323,221.313 147.575,220.211 147.972 C 219.631 148.180,219.157 148.593,219.157 148.888 C 219.157 149.184,218.898 149.425,218.582 149.425 C 218.266 149.425,218.008 149.615,218.008 149.846 C 218.008 150.351,215.710 152.558,215.090 152.649 C 214.849 152.684,212.824 154.560,210.589 156.816 C 208.354 159.073,206.258 160.920,205.932 160.920 C 205.605 160.920,204.353 161.979,203.148 163.274 C 201.246 165.319,198.038 168.489,194.210 172.108 C 193.608 172.677,193.267 173.236,193.452 173.351 C 193.803 173.567,189.724 177.838,188.218 178.830 C 187.744 179.143,187.356 179.703,187.356 180.074 C 187.356 180.446,186.063 181.954,184.483 183.426 C 182.902 184.898,181.609 186.340,181.609 186.629 C 181.609 186.919,177.557 191.138,172.605 196.005 C 167.653 200.872,163.602 205.030,163.602 205.245 C 163.602 205.460,162.391 205.738,160.911 205.862 C 158.073 206.099,156.094 206.616,152.874 207.960 C 151.467 208.547,150.418 208.933,150.128 208.971 C 149.987 208.989,149.743 209.133,149.585 209.291 C 149.427 209.449,149.008 209.579,148.655 209.579 C 148.301 209.579,147.699 209.923,147.318 210.345 C 146.937 210.766,146.344 211.111,146.002 211.111 C 145.660 211.111,145.138 211.447,144.842 211.857 C 144.547 212.267,144.155 212.510,143.971 212.396 C 143.787 212.283,143.243 212.648,142.762 213.208 C 142.281 213.768,141.625 214.264,141.304 214.311 C 140.658 214.406,139.466 215.477,139.459 215.969 C 139.456 216.142,138.846 216.677,138.103 217.159 C 137.360 217.640,136.855 218.199,136.980 218.401 C 137.105 218.603,136.599 219.395,135.855 220.160 C 135.112 220.925,134.406 221.859,134.287 222.235 C 134.168 222.610,133.807 223.019,133.486 223.142 C 133.165 223.265,133.009 223.540,133.140 223.752 C 133.271 223.964,133.196 224.138,132.973 224.138 C 132.750 224.138,132.567 224.468,132.567 224.872 C 132.567 225.276,132.431 225.664,132.266 225.734 C 131.778 225.941,129.732 230.395,129.787 231.129 C 129.815 231.498,129.676 231.801,129.478 231.801 C 129.280 231.801,129.119 232.134,129.119 232.542 C 129.119 232.950,128.915 233.769,128.666 234.362 C 128.417 234.955,128.176 235.699,128.130 236.015 C 128.084 236.331,127.687 237.711,127.247 239.080 C 126.807 240.450,126.444 241.878,126.442 242.253 C 126.439 242.629,126.197 243.028,125.904 243.140 C 125.597 243.258,125.454 243.657,125.566 244.086 C 125.673 244.494,125.567 244.828,125.332 244.828 C 125.097 244.828,124.904 245.089,124.904 245.407 C 124.904 245.726,124.752 246.287,124.566 246.653 C 123.781 248.196,123.053 250.214,123.133 250.627 C 123.159 250.762,122.749 251.249,122.222 251.710 C 121.695 252.171,121.480 252.439,121.743 252.305 C 122.007 252.172,122.222 252.226,122.222 252.427 C 122.222 252.627,121.986 252.882,121.697 252.993 C 121.408 253.104,121.056 253.654,120.915 254.215 C 120.774 254.777,120.235 255.908,119.717 256.729 C 119.198 257.550,118.774 258.398,118.774 258.613 C 118.774 258.828,118.622 259.004,118.437 259.004 C 118.252 259.004,117.886 259.521,117.625 260.153 C 117.363 260.785,116.997 261.303,116.812 261.303 C 116.627 261.303,116.475 261.535,116.475 261.819 C 116.475 262.479,115.179 263.985,114.610 263.985 C 114.372 263.985,114.176 264.281,114.176 264.643 C 114.176 265.005,113.784 265.652,113.305 266.080 C 111.710 267.506,110.786 271.548,111.899 272.235 C 112.121 272.373,112.250 272.762,112.184 273.101 C 111.862 274.774,117.578 277.011,122.176 277.011 C 123.220 277.011,124.134 277.190,124.207 277.409 C 124.295 277.674,130.361 277.852,142.342 277.943 C 161.872 278.090,170.517 278.347,175.287 278.922 C 176.973 279.125,180.077 279.485,182.184 279.722 C 186.548 280.213,189.645 280.704,189.080 280.817 C 188.547 280.924,191.992 282.060,192.816 282.049 C 193.185 282.044,193.487 282.202,193.487 282.399 C 193.487 282.597,193.740 282.759,194.050 282.759 C 194.613 282.759,197.723 284.235,198.084 284.674 C 198.190 284.802,199.138 285.122,200.192 285.384 C 201.245 285.646,203.142 286.120,204.406 286.438 C 205.670 286.755,207.395 287.171,208.238 287.361 C 210.480 287.866,227.479 287.840,227.794 287.330 C 227.933 287.105,228.301 287.018,228.611 287.137 C 229.375 287.431,229.228 283.137,228.454 282.558 C 227.736 282.020,229.379 279.551,230.569 279.379 C 231.036 279.312,231.418 279.124,231.418 278.961 C 231.418 278.798,232.150 278.458,233.046 278.204 C 233.942 277.950,235.019 277.596,235.441 277.418 C 236.577 276.937,241.538 275.862,242.622 275.862 C 243.140 275.862,244.064 275.703,244.675 275.508 C 246.003 275.085,252.246 274.672,256.513 274.726 C 262.615 274.803,265.048 274.765,271.073 274.500 C 274.444 274.352,277.419 274.224,277.682 274.216 C 277.945 274.208,278.161 274.058,278.161 273.883 C 278.161 273.707,278.698 273.563,279.355 273.563 C 280.793 273.563,284.205 272.441,285.146 271.658 C 285.840 271.080,286.116 268.582,285.485 268.582 C 285.299 268.582,285.064 268.267,284.964 267.882 C 284.788 267.212,280.958 265.392,277.778 264.468 C 277.462 264.376,270.565 264.187,262.452 264.047 C 253.998 263.902,247.456 263.634,247.126 263.420 C 246.810 263.215,245.948 263.019,245.211 262.985 C 244.473 262.951,242.409 262.731,240.623 262.496 C 236.634 261.971,231.345 261.966,227.778 262.483 C 226.303 262.696,224.521 262.919,223.819 262.978 C 223.116 263.036,222.408 263.302,222.243 263.567 C 222.079 263.833,221.834 264.030,221.699 264.004 C 221.019 263.878,217.625 264.505,217.625 264.757 C 217.625 264.916,216.849 265.163,215.900 265.306 C 214.952 265.448,214.176 265.726,214.176 265.924 C 214.176 266.122,213.825 266.284,213.396 266.284 C 212.968 266.284,212.235 266.528,211.768 266.827 C 210.915 267.374,207.806 267.886,204.598 268.010 C 203.649 268.046,202.583 268.204,202.228 268.360 C 201.603 268.636,190.698 268.446,185.249 268.064 C 183.774 267.961,180.670 267.769,178.352 267.637 C 176.034 267.506,173.017 267.214,171.648 266.989 C 170.278 266.764,168.942 266.570,168.678 266.559 C 167.777 266.521,172.186 261.691,173.125 261.688 C 173.431 261.687,173.554 261.448,173.423 261.108 C 173.293 260.769,173.514 260.334,173.957 260.058 C 174.373 259.798,174.713 259.369,174.713 259.103 C 174.713 258.838,174.914 258.621,175.160 258.621 C 175.405 258.621,175.496 258.510,175.360 258.374 C 175.224 258.238,175.633 257.506,176.267 256.746 C 178.096 254.556,178.161 254.462,178.161 254.002 C 178.161 253.481,179.306 251.373,179.984 250.647 C 180.250 250.362,180.378 249.986,180.269 249.810 C 180.161 249.635,180.288 249.419,180.552 249.331 C 180.815 249.243,181.039 248.926,181.049 248.628 C 181.075 247.809,181.959 244.727,182.384 243.971 C 182.590 243.605,182.759 242.948,182.759 242.511 C 182.759 242.075,182.895 241.802,183.062 241.905 C 183.229 242.008,183.407 241.556,183.457 240.899 C 183.507 240.243,183.696 239.522,183.876 239.297 C 184.226 238.863,184.437 237.596,185.120 231.840 L 185.547 228.239 189.708 224.119 C 191.997 221.853,193.870 220.051,193.870 220.113 C 193.870 220.176,195.082 219.015,196.564 217.533 C 198.046 216.051,199.173 214.754,199.068 214.649 C 198.964 214.545,199.907 213.422,201.164 212.154 C 202.420 210.886,203.448 209.714,203.448 209.551 C 203.448 209.388,204.052 209.056,204.789 208.812 C 205.527 208.569,206.130 208.200,206.130 207.993 C 206.130 207.402,215.408 198.431,215.862 198.582 C 216.320 198.735,223.013 192.058,222.882 191.580 C 222.835 191.410,223.211 190.908,223.718 190.463 C 224.224 190.019,224.552 189.655,224.446 189.655 C 224.202 189.655,227.568 186.253,230.422 183.614 C 231.622 182.504,232.511 181.445,232.396 181.260 C 232.282 181.075,232.446 180.824,232.761 180.704 C 233.076 180.583,233.333 180.220,233.333 179.897 C 233.333 179.574,233.492 179.310,233.687 179.310 C 233.882 179.310,234.550 178.801,235.173 178.178 C 235.796 177.555,236.401 177.141,236.517 177.258 C 236.634 177.375,236.642 177.135,236.535 176.725 C 236.392 176.179,236.854 175.541,238.271 174.329 C 239.333 173.421,240.109 172.528,239.995 172.344 C 239.881 172.160,240.319 171.514,240.967 170.908 C 241.615 170.303,242.146 169.644,242.146 169.445 C 242.146 168.877,243.536 167.418,243.813 167.695 C 243.949 167.832,244.061 167.656,244.061 167.305 C 244.061 166.954,244.254 166.710,244.489 166.762 C 244.725 166.815,244.964 166.583,245.021 166.247 C 245.173 165.354,247.826 161.971,248.893 161.310 C 249.396 160.998,249.808 160.464,249.808 160.123 C 249.808 159.368,251.067 157.854,251.696 157.854 C 251.947 157.854,252.037 157.667,251.895 157.438 C 251.754 157.209,252.208 156.433,252.906 155.714 C 253.603 154.995,254.021 154.406,253.835 154.406 C 253.649 154.406,253.986 153.895,254.585 153.270 C 255.183 152.646,255.848 152.243,256.062 152.375 C 256.301 152.523,256.352 152.356,256.194 151.945 C 255.945 151.294,256.605 150.165,258.429 148.127 C 258.851 147.656,259.437 146.813,259.732 146.254 C 260.027 145.694,260.442 145.344,260.653 145.475 C 260.871 145.609,260.919 145.520,260.765 145.271 C 260.462 144.781,261.425 143.162,261.797 143.534 C 261.926 143.663,262.146 143.314,262.285 142.759 C 262.424 142.204,262.955 141.423,263.464 141.022 C 263.973 140.622,264.342 140.150,264.284 139.975 C 264.194 139.701,266.040 136.961,266.693 136.398 C 266.816 136.293,267.248 135.609,267.653 134.877 C 268.059 134.146,268.693 133.208,269.061 132.794 C 269.430 132.379,269.732 131.829,269.732 131.571 C 269.732 131.313,270.239 130.675,270.860 130.153 C 271.480 129.631,271.885 129.101,271.759 128.975 C 271.633 128.849,271.980 128.393,272.529 127.961 C 273.116 127.499,273.440 126.943,273.313 126.614 C 273.195 126.306,273.289 126.054,273.522 126.054 C 273.756 126.054,273.946 125.808,273.946 125.507 C 273.946 125.206,274.401 124.602,274.956 124.166 C 275.511 123.729,275.740 123.372,275.464 123.372 C 275.146 123.372,275.267 123.047,275.795 122.485 C 276.253 121.997,276.628 121.394,276.628 121.144 C 276.628 120.894,276.769 120.690,276.941 120.690 C 277.113 120.690,277.641 120.000,278.115 119.157 C 278.589 118.314,279.124 117.625,279.304 117.625 C 279.485 117.625,279.746 117.107,279.885 116.475 C 280.024 115.843,280.318 115.326,280.538 115.326 C 281.095 115.326,280.723 111.316,280.096 110.560 C 279.485 109.824,273.802 109.751,272.605 110.463 M184.839 198.299 C 185.064 198.708,185.393 199.148,185.569 199.277 C 185.745 199.405,185.862 199.634,185.829 199.784 C 185.796 199.934,186.299 200.563,186.946 201.181 C 187.593 201.800,188.123 202.240,188.123 202.161 C 188.123 202.015,190.626 204.479,192.287 206.261 L 193.194 207.234 188.072 212.282 C 185.255 215.058,182.950 217.488,182.950 217.681 C 182.950 218.072,180.487 220.690,180.119 220.690 C 179.432 220.689,170.461 211.096,170.730 210.649 C 171.357 209.608,183.734 197.375,184.072 197.463 C 184.268 197.514,184.613 197.890,184.839 198.299 M168.933 222.190 C 174.437 227.628,175.679 229.772,173.946 230.843 C 173.736 230.973,173.563 231.845,173.563 232.781 C 173.563 233.747,173.384 234.483,173.148 234.483 C 172.920 234.483,172.808 234.698,172.900 234.962 C 173.067 235.439,172.299 238.581,171.660 240.038 C 171.249 240.975,170.886 242.607,170.994 243.035 C 171.037 243.207,170.767 243.520,170.394 243.729 C 170.021 243.938,169.808 244.257,169.920 244.439 C 170.175 244.852,169.341 246.743,168.904 246.743 C 168.727 246.743,168.582 247.002,168.582 247.318 C 168.582 247.634,168.410 247.893,168.199 247.893 C 167.989 247.893,167.816 248.228,167.816 248.637 C 167.816 249.047,167.453 249.636,167.008 249.948 C 166.564 250.259,166.305 250.682,166.432 250.889 C 166.683 251.294,164.223 253.640,163.547 253.640 C 163.321 253.640,163.236 253.898,163.357 254.214 C 163.576 254.785,161.256 257.471,160.543 257.471 C 160.351 257.471,159.726 257.904,159.155 258.433 C 158.584 258.962,158.031 259.308,157.925 259.202 C 157.818 259.096,157.491 259.353,157.196 259.773 C 156.632 260.579,153.715 262.069,152.703 262.069 C 152.375 262.069,152.107 262.241,152.107 262.452 C 152.107 262.663,151.875 262.835,151.591 262.835 C 151.308 262.835,150.545 263.100,149.897 263.423 C 147.698 264.520,142.610 265.553,136.695 266.103 C 133.533 266.397,126.663 265.922,127.778 265.487 C 128.199 265.323,128.372 265.171,128.161 265.149 C 127.950 265.128,128.080 264.935,128.448 264.720 C 128.817 264.505,129.119 264.101,129.119 263.822 C 129.119 263.543,129.983 261.612,131.039 259.531 C 132.095 257.451,133.250 254.972,133.605 254.024 C 133.960 253.075,134.479 252.159,134.758 251.988 C 135.037 251.817,135.168 251.520,135.050 251.328 C 134.931 251.136,135.120 250.544,135.469 250.011 C 135.818 249.478,135.994 249.042,135.860 249.042 C 135.726 249.042,135.965 248.359,136.391 247.525 C 136.816 246.690,137.165 245.656,137.165 245.226 C 137.165 244.796,137.349 244.444,137.574 244.444 C 137.808 244.444,137.879 244.118,137.739 243.678 C 137.600 243.239,137.671 242.912,137.905 242.912 C 138.130 242.912,138.314 242.405,138.314 241.785 C 138.314 241.165,138.487 240.552,138.697 240.421 C 138.908 240.291,139.080 239.793,139.080 239.313 C 139.080 238.834,139.200 238.322,139.347 238.175 C 139.494 238.029,139.654 237.630,139.705 237.289 C 139.921 235.812,140.809 233.333,141.121 233.333 C 141.308 233.333,141.368 233.089,141.253 232.790 C 141.138 232.492,141.289 232.153,141.589 232.039 C 141.892 231.922,142.033 231.570,141.907 231.241 C 141.782 230.916,141.860 230.651,142.079 230.651 C 142.298 230.651,142.580 230.327,142.706 229.931 C 143.007 228.981,144.232 227.586,144.765 227.586 C 144.997 227.586,145.104 227.370,145.002 227.105 C 144.767 226.492,148.649 222.519,149.256 222.753 C 149.507 222.849,149.928 222.524,150.192 222.031 C 150.473 221.504,151.639 220.718,153.018 220.126 C 154.308 219.572,155.663 218.954,156.029 218.754 C 156.395 218.554,156.956 218.391,157.274 218.391 C 157.593 218.391,157.854 218.218,157.854 218.008 C 157.854 217.797,158.458 217.625,159.195 217.625 C 159.933 217.625,160.536 217.452,160.536 217.241 C 160.536 217.031,161.212 216.858,162.037 216.858 C 163.451 216.858,163.845 217.163,168.933 222.190 " stroke="none" fill="#f46c6c" fill-rule="evenodd"></path><path id="path2" d="" stroke="none" fill="#e8c8e8" fill-rule="evenodd"></path><path id="path3" d="M261.787 274.988 C 262.369 275.076,263.231 275.073,263.703 274.982 C 264.174 274.891,263.697 274.819,262.644 274.822 C 261.590 274.825,261.204 274.900,261.787 274.988 " stroke="none" fill="#e888ac" fill-rule="evenodd"></path><path id="path4" d="" stroke="none" fill="#e88c6c" fill-rule="evenodd"></path></g></svg>