<svg id="svg" version="1.1" xmlns="http://www.w3.org/2000/svg" xmlns:xlink="http://www.w3.org/1999/xlink" width="400" height="398.85057471264366" viewBox="0, 0, 400,398.85057471264366"><g id="svgg"><path id="path0" d="M98.755 97.989 L 0.766 195.978 0.766 197.625 C 0.766 198.531,1.014 199.737,1.316 200.306 C 1.936 201.472,196.917 396.534,197.511 396.583 C 197.721 396.601,198.399 396.697,199.018 396.797 C 200.076 396.969,205.982 391.142,298.757 298.394 L 397.371 199.808 397.205 197.944 L 397.039 196.080 298.997 98.040 L 200.955 0.000 198.849 0.000 L 196.743 0.000 98.755 97.989 M391.086 198.199 C 391.030 198.367,347.798 241.687,295.016 294.466 L 199.047 390.427 102.880 294.259 L 6.712 198.091 102.877 101.929 L 199.042 5.768 295.115 101.830 C 347.955 154.664,391.142 198.030,391.086 198.199 " stroke="none" fill="#dce4e4" fill-rule="evenodd"></path><path id="path1" d="M197.653 99.713 C 196.824 101.903,190.122 118.394,188.116 123.180 C 187.233 125.287,186.122 127.960,185.647 129.119 C 184.445 132.053,181.875 137.809,179.781 142.256 L 178.015 146.006 181.249 149.288 C 184.711 152.801,193.382 160.332,195.831 161.953 C 198.022 163.403,197.686 163.340,193.966 161.606 C 188.165 158.901,182.167 155.292,177.294 151.576 L 176.002 150.590 169.514 163.505 C 165.946 170.609,163.070 176.554,163.123 176.716 C 163.175 176.879,163.036 177.011,162.813 177.011 C 162.589 177.011,162.513 177.184,162.644 177.395 C 162.774 177.605,162.688 177.778,162.452 177.778 C 162.217 177.778,162.130 177.950,162.261 178.161 C 162.391 178.372,162.305 178.544,162.069 178.544 C 161.833 178.544,161.747 178.716,161.877 178.927 C 162.008 179.138,161.975 179.311,161.804 179.311 C 161.353 179.311,159.359 182.986,159.651 183.278 C 159.787 183.414,159.687 183.525,159.428 183.525 C 159.170 183.525,159.065 183.697,159.195 183.908 C 159.326 184.119,159.239 184.291,159.004 184.291 C 158.768 184.291,158.673 184.449,158.792 184.642 C 158.911 184.834,158.858 185.050,158.673 185.121 C 158.242 185.286,152.830 195.466,152.964 195.860 C 153.020 196.023,156.082 194.417,159.770 192.290 C 187.589 176.245,206.088 173.001,230.747 179.841 C 235.061 181.037,235.299 181.828,227.352 168.552 C 217.901 152.765,205.203 122.320,200.905 105.145 C 199.042 97.698,198.659 97.058,197.653 99.713 M217.657 141.571 C 217.657 141.782,217.987 142.557,218.391 143.295 C 218.795 144.033,219.125 144.464,219.125 144.253 C 219.125 144.042,218.795 143.266,218.391 142.529 C 217.987 141.791,217.657 141.360,217.657 141.571 M219.572 145.724 C 219.529 146.156,228.064 163.635,228.234 163.465 C 228.307 163.391,226.396 159.297,223.986 154.367 C 221.576 149.436,219.589 145.547,219.572 145.724 " stroke="none" fill="#fb8484" fill-rule="evenodd"></path><path id="path2" d="M201.533 177.039 C 188.012 178.525,179.450 181.689,161.321 191.899 C 156.589 194.563,152.622 196.714,152.504 196.678 C 152.387 196.642,150.999 199.050,149.421 202.029 C 147.843 205.008,145.542 209.261,144.308 211.481 C 143.073 213.701,140.810 217.845,139.277 220.690 C 137.745 223.534,135.119 228.362,133.443 231.418 C 131.767 234.473,129.735 238.180,128.927 239.655 C 128.120 241.130,126.594 243.889,125.537 245.785 C 123.181 250.011,121.123 253.734,118.231 259.004 C 117.016 261.216,115.866 263.191,115.674 263.391 C 115.233 263.851,115.220 264.751,115.654 264.751 C 115.834 264.751,117.515 263.865,119.389 262.783 C 141.235 250.164,162.003 241.153,177.107 237.740 C 179.583 237.181,181.606 236.607,181.603 236.465 C 181.599 236.323,181.341 234.655,181.029 232.759 C 178.398 216.741,185.039 199.526,195.136 196.193 C 208.094 191.917,220.164 212.048,217.046 232.738 C 216.360 237.284,216.017 236.868,221.456 238.080 C 235.798 241.277,258.844 251.451,279.412 263.667 C 282.596 265.558,282.619 265.420,279.938 260.594 C 277.949 257.014,276.416 254.203,274.058 249.808 C 273.436 248.649,271.769 245.546,270.354 242.912 C 268.651 239.742,267.349 237.799,266.504 237.165 C 265.801 236.638,263.956 235.173,262.403 233.910 C 256.466 229.081,252.229 226.044,246.743 222.688 C 244.531 221.334,243.151 220.349,243.678 220.499 C 249.539 222.165,256.820 225.116,260.202 227.196 C 262.882 228.846,263.922 231.025,250.883 207.663 C 248.237 202.921,245.199 197.314,244.133 195.201 C 242.046 191.067,236.486 183.039,234.650 181.509 C 231.082 178.534,211.715 175.920,201.533 177.039 " stroke="none" fill="#f36c6c" fill-rule="evenodd"></path><path id="path3" d="M199.744 100.575 C 199.866 100.996,200.579 103.796,201.328 106.798 C 205.027 121.614,218.443 153.742,226.490 167.051 C 229.738 172.424,232.822 177.682,233.343 178.736 C 233.865 179.789,234.424 180.710,234.586 180.781 C 234.748 180.853,236.100 182.620,237.591 184.709 C 239.082 186.797,240.373 188.506,240.459 188.506 C 240.545 188.506,238.099 183.475,235.024 177.327 C 231.948 171.179,229.366 165.804,229.284 165.382 C 229.203 164.961,228.917 164.476,228.649 164.306 C 228.380 164.136,228.333 163.991,228.544 163.985 C 228.759 163.978,228.738 163.850,228.496 163.691 C 227.773 163.219,224.479 156.317,224.760 155.863 C 224.931 155.586,224.846 155.547,224.515 155.751 C 224.144 155.980,224.075 155.888,224.260 155.407 C 224.399 155.045,224.375 154.834,224.208 154.938 C 223.851 155.158,221.671 150.641,216.484 138.936 C 214.419 134.274,212.173 129.253,211.493 127.778 C 210.813 126.303,209.181 122.423,207.866 119.157 C 203.415 108.095,198.989 97.969,199.744 100.575 " stroke="none" fill="#fb9494" fill-rule="evenodd"></path><path id="path4" d="M202.203 176.899 C 202.677 176.990,203.453 176.990,203.927 176.899 C 204.401 176.807,204.013 176.733,203.065 176.733 C 202.117 176.733,201.729 176.807,202.203 176.899 M198.563 177.276 C 198.932 177.372,199.535 177.372,199.904 177.276 C 200.273 177.179,199.971 177.100,199.234 177.100 C 198.496 177.100,198.194 177.179,198.563 177.276 M188.697 179.133 C 187.186 179.656,187.184 179.660,188.506 179.437 C 190.069 179.173,191.667 178.590,190.805 178.598 C 190.489 178.601,189.540 178.842,188.697 179.133 M181.992 181.237 C 175.149 183.821,152.562 195.614,152.505 196.631 C 152.497 196.780,154.344 195.851,156.609 194.565 C 158.875 193.280,162.711 191.102,165.134 189.726 C 171.112 186.331,177.130 183.472,182.602 181.428 C 185.111 180.490,186.906 179.722,186.590 179.720 C 186.274 179.719,184.205 180.401,181.992 181.237 " stroke="none" fill="#e4767c" fill-rule="evenodd"></path></g></svg>