<svg id="svg" version="1.1" xmlns="http://www.w3.org/2000/svg" xmlns:xlink="http://www.w3.org/1999/xlink" width="400" height="398.85057471264366" viewBox="0, 0, 400,398.85057471264366"><g id="svgg"><path id="path0" d="M98.755 97.989 L 0.766 195.978 0.766 197.625 C 0.766 198.531,1.014 199.737,1.316 200.306 C 1.936 201.472,196.917 396.534,197.511 396.583 C 197.721 396.601,198.399 396.697,199.018 396.797 C 200.076 396.969,205.982 391.142,298.757 298.394 L 397.371 199.808 397.205 197.944 L 397.039 196.080 298.997 98.040 L 200.955 0.000 198.849 0.000 L 196.743 0.000 98.755 97.989 M391.086 198.199 C 391.030 198.367,347.798 241.687,295.016 294.466 L 199.047 390.427 102.880 294.259 L 6.712 198.091 102.877 101.929 L 199.042 5.768 295.115 101.830 C 347.955 154.664,391.142 198.030,391.086 198.199 " stroke="none" fill="#dce4e4" fill-rule="evenodd"></path><path id="path1" d="M147.775 136.179 C 140.567 138.117,140.497 147.147,147.578 161.571 C 150.829 168.194,160.027 181.969,160.856 181.457 C 161.007 181.364,168.970 178.246,178.553 174.528 C 195.325 168.022,196.045 167.701,197.805 165.960 L 199.634 164.150 195.507 160.465 C 176.711 143.684,157.057 133.684,147.775 136.179 M202.426 170.977 C 200.489 172.973,186.505 206.979,187.176 208.064 C 188.125 209.599,200.448 217.625,206.655 220.751 C 241.989 238.542,240.919 208.646,204.820 169.445 C 204.475 169.070,203.955 169.403,202.426 170.977 M174.713 183.136 C 169.971 185.004,165.876 186.675,165.613 186.849 C 165.270 187.074,165.928 188.021,167.911 190.158 L 170.690 193.152 177.391 186.423 C 181.076 182.722,183.921 179.704,183.712 179.717 C 183.504 179.730,179.454 181.269,174.713 183.136 M182.054 191.317 L 175.419 197.961 178.414 200.676 C 180.062 202.170,181.442 203.360,181.482 203.320 C 181.586 203.216,188.805 184.674,188.742 184.674 C 188.713 184.674,185.703 187.664,182.054 191.317 " stroke="none" fill="#fca4a4" fill-rule="evenodd"></path><path id="path2" d="M219.157 99.105 C 215.663 100.495,216.779 105.362,220.594 105.366 C 243.672 105.395,262.546 124.868,263.205 149.330 C 263.256 151.221,266.930 152.031,268.563 150.511 C 269.429 149.704,269.448 149.546,269.239 144.860 C 268.273 123.116,251.984 104.337,230.358 100.037 C 226.390 99.247,220.112 98.725,219.157 99.105 M218.259 115.643 C 217.382 116.612,217.405 119.619,218.295 120.371 C 218.679 120.696,220.584 121.133,222.757 121.395 C 236.315 123.027,245.887 132.802,247.115 146.270 C 247.461 150.072,248.110 150.958,250.550 150.958 C 254.321 150.958,254.762 143.722,251.474 135.824 C 250.948 134.559,250.416 133.180,250.292 132.759 C 250.168 132.337,249.965 131.906,249.841 131.801 C 249.717 131.695,248.946 130.586,248.128 129.335 C 242.420 120.605,232.252 114.966,222.186 114.948 C 219.477 114.944,218.780 115.067,218.259 115.643 M144.952 130.053 C 135.188 133.106,127.033 152.211,127.033 172.031 C 127.033 188.820,131.632 202.370,141.505 214.670 L 143.593 217.271 142.199 219.986 C 139.686 224.880,140.086 231.845,143.107 235.802 L 144.444 237.555 144.444 246.172 L 144.444 254.789 140.826 254.789 C 135.443 254.789,135.781 254.266,133.045 266.858 L 130.797 277.203 127.651 277.439 C 122.836 277.799,122.989 277.500,122.989 286.590 C 122.989 293.773,123.027 294.169,123.795 294.864 C 124.572 295.567,125.726 295.598,155.235 295.696 L 185.869 295.799 186.996 294.672 L 188.123 293.546 188.123 286.641 C 188.123 277.871,188.016 277.674,183.179 277.454 C 181.473 277.377,180.076 277.289,180.076 277.258 C 180.075 277.228,179.042 272.462,177.779 266.667 C 175.034 254.069,175.501 254.789,170.072 254.789 L 166.284 254.789 166.297 246.264 C 166.311 238.033,166.340 237.704,167.163 236.700 L 168.014 235.660 171.353 236.986 C 185.471 242.591,202.029 243.276,216.197 238.842 C 223.456 236.570,234.119 230.566,236.398 227.466 C 244.426 216.550,234.514 191.944,212.301 167.643 L 209.166 164.213 211.394 161.985 L 213.622 159.757 215.541 160.121 C 223.138 161.562,229.313 154.141,226.353 147.126 C 221.948 136.689,206.234 141.624,208.334 152.785 L 208.746 154.981 206.560 157.196 L 204.373 159.412 200.750 156.102 C 179.559 136.742,157.096 126.256,144.952 130.053 M218.774 131.418 C 216.568 133.624,218.129 136.640,221.742 137.151 C 227.071 137.904,230.640 141.481,231.367 146.799 C 231.744 149.558,232.651 150.575,234.734 150.575 C 240.824 150.575,237.786 138.374,230.437 133.318 C 226.825 130.832,220.405 129.787,218.774 131.418 M156.684 136.439 C 168.031 139.308,182.963 148.463,196.484 160.841 L 200.057 164.111 198.017 166.102 C 196.065 168.007,183.679 173.216,161.254 181.563 C 158.829 182.465,147.361 163.936,143.819 153.391 C 139.164 139.537,143.958 133.221,156.684 136.439 M219.096 148.506 C 221.786 150.391,219.737 154.807,216.707 153.655 C 214.486 152.811,214.014 150.678,215.679 149.013 C 216.945 147.747,217.826 147.616,219.096 148.506 M207.569 171.935 C 226.843 193.089,237.421 216.614,230.966 223.966 C 225.421 230.282,206.012 223.489,187.221 208.656 C 186.041 207.725,199.636 173.054,202.221 170.402 C 204.440 168.125,203.978 167.993,207.569 171.935 M184.291 179.602 C 184.291 179.762,181.217 182.964,177.460 186.717 L 170.628 193.540 167.690 190.416 C 166.073 188.698,164.751 187.162,164.751 187.003 C 164.751 186.714,182.896 179.431,183.812 179.352 C 184.076 179.329,184.291 179.441,184.291 179.602 M188.889 184.954 C 188.889 185.394,181.929 203.222,181.628 203.555 C 181.479 203.719,179.905 202.482,178.131 200.805 L 174.904 197.758 181.413 191.216 C 187.186 185.415,188.889 183.988,188.889 184.954 " stroke="none" fill="#f46c6c" fill-rule="evenodd"></path><path id="path3" d="M144.229 138.027 L 143.103 139.272 144.349 138.147 C 145.034 137.528,145.594 136.967,145.594 136.901 C 145.594 136.605,145.278 136.866,144.229 138.027 M166.699 140.374 C 167.090 140.729,170.115 142.141,170.115 141.970 C 170.115 141.752,167.223 140.230,166.810 140.230 C 166.661 140.230,166.611 140.295,166.699 140.374 M180.077 148.032 C 180.077 148.137,180.594 148.592,181.226 149.042 C 181.858 149.492,182.375 149.774,182.375 149.669 C 182.375 149.564,181.858 149.109,181.226 148.659 C 180.594 148.209,180.077 147.927,180.077 148.032 M187.356 153.370 C 187.356 153.468,188.167 154.212,189.158 155.024 C 190.150 155.836,190.837 156.301,190.686 156.056 C 190.364 155.535,187.356 153.109,187.356 153.370 M191.188 156.394 C 191.188 156.476,192.696 157.905,194.540 159.569 C 196.384 161.234,197.375 162.030,196.743 161.339 C 195.521 160.001,191.188 156.145,191.188 156.394 M198.764 163.302 L 199.614 164.152 197.796 166.080 L 195.977 168.008 197.983 166.111 L 199.990 164.215 199.162 163.334 C 198.706 162.849,198.239 162.452,198.124 162.452 C 198.008 162.452,198.297 162.835,198.764 163.302 M202.286 170.785 L 200.192 172.989 202.314 170.973 C 204.068 169.309,204.531 169.042,204.978 169.441 C 205.439 169.852,205.444 169.825,205.011 169.253 C 204.379 168.417,204.719 168.225,202.286 170.785 M152.343 170.594 C 153.147 171.965,155.608 175.479,155.764 175.479 C 155.864 175.479,155.142 174.272,154.161 172.797 C 153.181 171.322,152.307 170.115,152.220 170.115 C 152.133 170.115,152.188 170.330,152.343 170.594 M207.471 172.414 C 208.509 173.467,209.444 174.330,209.550 174.330 C 209.655 174.330,208.892 173.467,207.854 172.414 C 206.817 171.360,205.881 170.498,205.776 170.498 C 205.671 170.498,206.433 171.360,207.471 172.414 M209.579 174.833 C 209.579 174.898,210.139 175.459,210.824 176.078 L 212.069 177.203 210.944 175.958 C 209.895 174.797,209.579 174.537,209.579 174.833 M157.111 177.561 C 157.782 178.496,158.837 179.832,159.456 180.530 C 160.074 181.229,159.601 180.465,158.405 178.831 C 157.208 177.198,156.153 175.862,156.060 175.862 C 155.967 175.862,156.440 176.627,157.111 177.561 M213.175 179.041 C 213.987 180.032,214.732 180.843,214.829 180.843 C 215.091 180.843,212.664 177.836,212.143 177.514 C 211.898 177.362,212.363 178.050,213.175 179.041 M183.667 179.580 C 183.815 179.728,180.960 182.829,177.322 186.471 L 170.708 193.093 168.975 191.470 L 167.241 189.847 168.956 191.673 L 170.670 193.499 177.480 186.696 C 184.120 180.064,184.769 179.310,183.844 179.310 C 183.598 179.310,183.518 179.432,183.667 179.580 M181.692 191.296 L 175.079 197.918 176.524 199.246 L 177.969 200.575 176.731 199.223 L 175.493 197.870 181.921 191.450 C 185.457 187.919,188.499 185.165,188.681 185.331 C 188.863 185.497,188.888 185.417,188.736 185.153 C 188.585 184.890,188.426 184.674,188.383 184.674 C 188.341 184.674,185.330 187.654,181.692 191.296 M218.391 185.824 C 218.841 186.456,219.295 186.973,219.401 186.973 C 219.506 186.973,219.224 186.456,218.774 185.824 C 218.324 185.192,217.869 184.674,217.764 184.674 C 217.659 184.674,217.941 185.192,218.391 185.824 M164.751 186.898 C 164.751 187.067,165.398 187.800,166.188 188.526 L 167.625 189.847 166.373 188.481 C 165.684 187.729,165.239 186.996,165.383 186.852 C 165.527 186.708,165.444 186.590,165.198 186.590 C 164.952 186.590,164.751 186.729,164.751 186.898 M180.077 202.490 C 180.791 203.228,181.463 203.831,181.568 203.831 C 181.673 203.831,181.175 203.228,180.460 202.490 C 179.745 201.753,179.074 201.149,178.968 201.149 C 178.863 201.149,179.362 201.753,180.077 202.490 M191.571 211.634 C 191.571 211.739,192.088 212.194,192.720 212.644 C 193.352 213.094,193.870 213.376,193.870 213.271 C 193.870 213.165,193.352 212.711,192.720 212.261 C 192.088 211.810,191.571 211.528,191.571 211.634 M232.664 217.816 C 232.668 218.659,232.746 218.959,232.838 218.482 C 232.930 218.006,232.926 217.316,232.830 216.950 C 232.734 216.583,232.659 216.973,232.664 217.816 M230.270 224.068 C 229.316 225.074,229.198 225.306,229.859 224.876 C 230.649 224.363,232.175 222.553,231.752 222.632 C 231.673 222.646,231.007 223.293,230.270 224.068 M223.276 226.324 C 223.750 226.415,224.526 226.415,225.000 226.324 C 225.474 226.233,225.086 226.158,224.138 226.158 C 223.190 226.158,222.802 226.233,223.276 226.324 " stroke="none" fill="#f68c8c" fill-rule="evenodd"></path><path id="path4" d="M202.093 170.594 L 200.192 172.605 202.203 170.704 C 204.072 168.937,204.390 168.582,204.104 168.582 C 204.044 168.582,203.139 169.488,202.093 170.594 M205.364 169.852 C 205.364 169.918,205.924 170.478,206.609 171.097 L 207.854 172.222 206.729 170.977 C 205.680 169.816,205.364 169.556,205.364 169.852 M181.413 191.284 L 174.904 197.893 181.513 191.384 C 187.654 185.336,188.296 184.674,188.023 184.674 C 187.968 184.674,184.993 187.648,181.413 191.284 " stroke="none" fill="#f58484" fill-rule="evenodd"></path></g></svg>