<svg id="svg" version="1.1" xmlns="http://www.w3.org/2000/svg" xmlns:xlink="http://www.w3.org/1999/xlink" width="400" height="398.85057471264366" viewBox="0, 0, 400,398.85057471264366"><g id="svgg"><path id="path0" d="M98.755 97.989 L 0.766 195.978 0.766 197.625 C 0.766 198.531,1.014 199.737,1.316 200.306 C 1.936 201.472,196.917 396.534,197.511 396.583 C 197.721 396.601,198.399 396.697,199.018 396.797 C 200.076 396.969,205.982 391.142,298.757 298.394 L 397.371 199.808 397.205 197.944 L 397.039 196.080 298.997 98.040 L 200.955 0.000 198.849 0.000 L 196.743 0.000 98.755 97.989 M391.086 198.199 C 391.030 198.367,347.798 241.687,295.016 294.466 L 199.047 390.427 102.880 294.259 L 6.712 198.091 102.877 101.929 L 199.042 5.768 295.115 101.830 C 347.955 154.664,391.142 198.030,391.086 198.199 M246.861 158.524 C 249.349 158.591,253.314 158.590,255.673 158.523 C 258.032 158.456,255.996 158.402,251.149 158.402 C 246.303 158.402,244.373 158.457,246.861 158.524 " stroke="none" fill="#dce4e4" fill-rule="evenodd"></path><path id="path1" d="M242.215 171.265 C 242.282 178.219,242.219 183.908,242.076 183.908 C 241.832 183.908,241.394 184.968,241.224 185.967 C 241.184 186.204,240.953 186.759,240.710 187.199 C 240.468 187.639,240.374 188.398,240.501 188.887 C 240.663 189.504,240.598 189.691,240.290 189.501 C 240.046 189.350,239.847 189.397,239.847 189.605 C 239.847 189.813,239.625 190.211,239.353 190.490 C 238.387 191.482,237.180 193.757,237.457 194.064 C 237.612 194.235,237.543 194.264,237.304 194.127 C 236.919 193.907,235.676 194.932,235.920 195.270 C 235.972 195.343,235.965 195.359,235.904 195.307 C 235.843 195.254,235.104 195.756,234.262 196.423 C 233.421 197.089,232.099 197.937,231.325 198.306 C 230.551 198.675,230.006 199.119,230.113 199.292 C 230.220 199.466,230.040 199.505,229.713 199.380 C 229.376 199.250,229.119 199.354,229.119 199.621 C 229.119 199.891,228.814 200.010,228.398 199.901 C 227.727 199.726,225.091 200.293,223.742 200.902 C 223.419 201.048,213.203 201.121,201.041 201.063 C 188.878 201.005,178.927 201.101,178.927 201.275 C 178.927 201.450,178.367 201.554,177.682 201.507 C 175.308 201.344,173.515 201.528,173.752 201.911 C 173.886 202.129,173.733 202.193,173.392 202.062 C 173.065 201.936,172.797 202.025,172.797 202.258 C 172.797 202.491,172.409 202.686,171.935 202.690 C 171.064 202.699,167.817 204.024,167.444 204.523 C 167.332 204.672,166.552 205.307,165.709 205.934 C 164.866 206.562,163.757 207.571,163.245 208.178 C 162.732 208.784,162.101 209.492,161.842 209.750 C 161.584 210.009,161.313 210.637,161.241 211.145 C 161.170 211.653,160.775 212.348,160.364 212.690 C 159.831 213.133,159.628 213.762,159.652 214.893 C 159.672 215.763,159.553 216.475,159.388 216.475 C 158.562 216.475,158.127 261.952,158.944 262.969 C 159.139 263.212,159.418 263.970,159.565 264.655 C 159.711 265.340,160.000 265.900,160.206 265.900 C 160.413 265.900,160.488 266.052,160.374 266.237 C 159.954 266.916,165.308 272.797,166.347 272.797 C 166.504 272.797,167.072 273.237,167.610 273.775 C 168.148 274.314,168.771 274.642,168.993 274.504 C 169.215 274.367,169.731 274.557,170.139 274.926 C 170.547 275.295,170.881 275.452,170.881 275.274 C 170.881 275.095,171.108 275.259,171.385 275.639 C 171.662 276.018,172.395 276.359,173.014 276.397 C 173.632 276.435,174.483 276.652,174.904 276.879 C 176.678 277.835,179.739 278.595,180.842 278.353 C 181.475 278.214,181.992 278.258,181.992 278.452 C 181.992 278.904,188.225 279.883,189.062 279.562 C 189.464 279.408,189.601 279.471,189.438 279.735 C 189.095 280.289,211.400 280.056,211.796 279.501 C 211.946 279.291,212.922 279.074,213.965 279.018 C 215.008 278.963,215.981 278.724,216.127 278.487 C 216.288 278.227,216.804 278.161,217.436 278.319 C 218.610 278.614,223.755 277.190,223.755 276.571 C 223.755 276.363,224.085 276.299,224.490 276.427 C 225.272 276.675,230.016 274.456,231.761 273.025 C 234.510 270.770,237.029 267.682,236.848 266.789 C 236.779 266.451,236.952 266.032,237.231 265.860 C 237.631 265.613,237.763 263.123,237.852 254.222 L 237.964 242.898 218.120 243.001 L 198.276 243.103 198.276 240.613 L 198.276 238.123 229.175 237.931 C 258.538 237.749,260.112 237.704,260.855 237.031 C 261.286 236.642,261.821 236.437,262.045 236.575 C 262.269 236.714,262.452 236.644,262.452 236.421 C 262.452 236.198,262.581 236.044,262.739 236.078 C 263.377 236.218,265.115 235.528,264.920 235.213 C 264.805 235.027,264.958 234.969,265.260 235.085 C 265.579 235.208,266.162 234.845,266.655 234.219 C 267.121 233.626,267.555 233.228,267.620 233.333 C 267.684 233.439,268.456 232.947,269.335 232.241 C 270.213 231.535,270.852 230.877,270.754 230.780 C 270.467 230.493,272.188 228.860,272.569 229.057 C 272.759 229.156,272.807 229.061,272.674 228.846 C 272.541 228.631,272.779 228.141,273.203 227.757 C 273.627 227.374,273.883 226.824,273.773 226.537 C 273.662 226.249,273.714 226.102,273.888 226.209 C 274.171 226.384,275.662 223.777,275.486 223.414 C 275.446 223.333,275.595 223.153,275.817 223.016 C 276.039 222.879,276.262 222.225,276.312 221.563 C 276.363 220.901,276.522 220.433,276.667 220.522 C 276.877 220.652,277.334 219.562,277.561 218.391 C 277.581 218.285,277.737 217.980,277.908 217.711 C 278.196 217.258,278.525 215.030,278.672 212.548 C 278.706 211.968,278.844 211.494,278.978 211.494 C 279.112 211.494,279.412 210.158,279.644 208.525 C 280.337 203.637,280.111 187.054,279.357 187.518 C 279.226 187.599,279.105 186.787,279.089 185.713 C 279.073 184.639,278.898 183.707,278.700 183.641 C 278.501 183.575,278.369 182.887,278.406 182.112 C 278.442 181.337,278.288 180.260,278.063 179.719 C 277.838 179.178,277.688 178.588,277.729 178.408 C 277.771 178.228,277.646 177.883,277.452 177.642 C 277.259 177.400,276.976 176.600,276.824 175.862 C 276.672 175.125,276.060 173.659,275.465 172.605 C 274.870 171.552,274.382 170.603,274.381 170.498 C 274.374 169.856,273.811 169.004,273.514 169.188 C 273.320 169.308,273.186 169.263,273.216 169.090 C 273.365 168.233,273.014 167.665,271.001 165.506 C 268.873 163.224,265.448 160.258,266.031 161.203 C 266.230 161.526,266.135 161.605,265.731 161.450 C 265.405 161.325,265.224 161.085,265.327 160.917 C 265.552 160.554,263.384 159.732,263.059 160.057 C 262.936 160.180,262.835 160.098,262.835 159.875 C 262.835 159.652,262.568 159.366,262.241 159.241 C 261.839 159.087,261.736 159.167,261.923 159.487 C 262.076 159.748,261.856 159.660,261.434 159.291 C 260.749 158.692,259.678 158.621,251.380 158.621 L 242.093 158.621 242.215 171.265 M223.823 254.110 C 224.177 254.153,224.436 254.280,224.398 254.392 C 224.360 254.505,224.459 254.641,224.617 254.693 C 225.189 254.884,226.312 256.137,226.162 256.418 C 226.077 256.576,226.201 256.705,226.437 256.705 C 226.672 256.705,226.758 256.879,226.627 257.091 C 226.496 257.303,226.628 257.569,226.922 257.681 C 227.650 257.961,227.342 261.927,226.492 263.218 C 226.146 263.745,225.858 264.349,225.852 264.559 C 225.833 265.294,225.259 265.865,224.740 265.666 C 224.453 265.556,223.984 265.779,223.699 266.162 C 223.149 266.900,218.008 267.232,218.008 266.530 C 218.008 266.349,217.740 266.304,217.413 266.430 C 217.086 266.555,216.918 266.496,217.041 266.298 C 217.261 265.941,215.767 264.901,215.244 265.048 C 215.093 265.090,215.062 264.886,215.174 264.594 C 215.286 264.301,215.167 263.932,214.909 263.773 C 214.584 263.572,214.537 263.648,214.753 264.021 C 214.925 264.317,214.922 264.429,214.746 264.269 C 214.225 263.797,213.716 257.378,214.224 257.692 C 214.428 257.818,214.962 256.483,214.904 255.989 C 214.895 255.912,215.442 255.511,216.120 255.099 C 216.798 254.687,217.564 254.139,217.822 253.880 C 218.163 253.539,218.959 253.496,220.736 253.722 C 222.080 253.893,223.469 254.068,223.823 254.110 " stroke="none" fill="#fc9c9c" fill-rule="evenodd"></path><path id="path2" d="M185.057 117.818 C 184.741 117.890,182.759 118.237,180.651 118.589 C 168.914 120.550,161.502 125.019,159.030 131.627 C 158.274 133.647,158.232 134.411,158.327 144.188 L 158.429 154.598 178.257 154.697 L 198.084 154.796 198.084 157.092 L 198.084 159.387 168.870 159.396 C 149.624 159.403,139.067 159.545,137.931 159.813 C 136.983 160.036,135.800 160.298,135.302 160.393 C 129.353 161.535,122.924 168.253,119.398 177.011 C 115.577 186.504,115.370 209.517,119.010 220.115 C 119.517 221.590,119.945 222.969,119.962 223.180 C 120.098 224.845,124.065 230.921,126.548 233.266 C 132.051 238.464,134.269 239.202,144.962 239.391 C 149.566 239.473,153.479 239.393,153.657 239.214 C 153.835 239.035,154.012 233.438,154.050 226.775 L 154.121 214.662 155.212 211.376 C 156.288 208.134,158.676 203.831,159.399 203.831 C 159.603 203.831,159.770 203.602,159.770 203.321 C 159.770 202.118,165.219 198.791,169.349 197.473 C 171.234 196.871,174.082 196.776,196.360 196.565 C 212.976 196.407,221.583 196.190,222.222 195.911 C 222.749 195.682,223.306 195.465,223.459 195.430 C 223.613 195.395,224.475 195.042,225.375 194.646 C 226.275 194.250,227.258 193.871,227.559 193.802 C 227.860 193.734,228.377 193.470,228.708 193.215 C 231.504 191.066,232.373 190.276,233.671 188.705 C 234.785 187.357,235.165 186.550,235.179 185.497 C 235.202 183.811,235.736 182.310,236.887 180.697 L 237.739 179.502 237.864 158.429 C 237.958 142.532,237.871 136.839,237.508 135.249 C 237.244 134.090,236.984 132.902,236.931 132.608 C 236.877 132.315,236.277 131.281,235.598 130.310 C 231.328 124.210,225.499 120.940,214.943 118.721 C 211.242 117.943,187.630 117.229,185.057 117.818 M178.792 131.445 C 182.733 133.353,183.546 139.217,180.268 142.094 C 175.753 146.059,169.212 143.134,169.228 137.157 C 169.241 132.158,174.176 129.211,178.792 131.445 " stroke="none" fill="#f46c6c" fill-rule="evenodd"></path><path id="path3" d="M236.319 181.517 C 235.545 182.834,234.811 185.824,235.262 185.824 C 235.673 185.824,237.232 181.654,237.086 180.948 C 237.016 180.609,236.727 180.823,236.319 181.517 " stroke="none" fill="#64688c" fill-rule="evenodd"></path><path id="path4" d="M190.736 201.053 C 196.915 201.113,206.915 201.113,212.958 201.053 C 219.002 200.994,213.946 200.946,201.724 200.946 C 189.502 200.946,184.557 200.994,190.736 201.053 M158.415 241.188 C 158.415 251.513,158.464 255.682,158.525 250.452 C 158.585 245.222,158.585 236.774,158.525 231.678 C 158.464 226.583,158.415 230.862,158.415 241.188 " stroke="none" fill="#f49c9c" fill-rule="evenodd"></path></g></svg>