<svg id="svg" version="1.1" xmlns="http://www.w3.org/2000/svg" xmlns:xlink="http://www.w3.org/1999/xlink" width="400" height="398.85057471264366" viewBox="0, 0, 400,398.85057471264366"><g id="svgg"><path id="path0" d="M98.755 97.989 L 0.766 195.978 0.766 197.625 C 0.766 198.531,1.014 199.737,1.316 200.306 C 1.936 201.472,196.917 396.534,197.511 396.583 C 197.721 396.601,198.399 396.697,199.018 396.797 C 200.076 396.969,205.982 391.142,298.757 298.394 L 397.371 199.808 397.205 197.944 L 397.039 196.080 298.997 98.040 L 200.955 0.000 198.849 0.000 L 196.743 0.000 98.755 97.989 M391.086 198.199 C 391.030 198.367,347.798 241.687,295.016 294.466 L 199.047 390.427 102.880 294.259 L 6.712 198.091 102.877 101.929 L 199.042 5.768 295.115 101.830 C 347.955 154.664,391.142 198.030,391.086 198.199 " stroke="none" fill="#dce4e4" fill-rule="evenodd"></path><path id="path1" d="M234.866 125.936 C 222.117 128.985,211.427 131.580,211.111 131.701 C 210.795 131.823,210.389 131.889,210.209 131.848 C 210.028 131.807,209.684 131.930,209.442 132.121 C 209.201 132.311,205.987 133.200,202.299 134.095 C 194.749 135.927,193.921 136.263,192.560 138.048 C 183.243 150.262,195.373 191.188,208.310 191.188 C 209.963 191.188,237.736 184.953,247.701 182.345 C 249.387 181.904,250.939 181.497,251.149 181.442 C 251.360 181.387,251.791 181.235,252.107 181.104 C 252.423 180.974,257.417 179.758,263.204 178.403 C 277.733 175.002,277.358 175.450,274.745 164.637 C 273.920 161.223,272.608 155.757,271.829 152.490 C 271.050 149.224,269.653 143.377,268.723 139.496 C 267.793 135.616,266.680 130.961,266.250 129.152 C 265.819 127.342,265.365 125.603,265.240 125.287 C 265.115 124.971,265.046 124.565,265.087 124.385 C 265.128 124.205,264.961 123.817,264.717 123.523 C 264.474 123.229,264.415 122.989,264.587 122.989 C 264.760 122.989,264.242 122.385,263.437 121.648 C 261.274 119.666,260.754 119.744,234.866 125.936 M169.349 148.295 L 155.364 151.668 153.947 153.255 C 150.107 157.558,150.742 173.993,155.119 183.600 C 155.570 184.589,155.939 185.568,155.939 185.775 C 155.939 185.983,156.165 186.380,156.443 186.658 C 156.720 186.937,157.435 188.000,158.033 189.021 C 162.306 196.323,164.452 197.158,172.989 194.842 C 175.728 194.099,181.978 192.500,186.877 191.290 C 191.777 190.079,195.785 188.983,195.785 188.854 C 195.785 188.725,194.953 187.344,193.935 185.785 C 188.215 177.024,184.337 161.768,184.741 149.623 C 184.896 144.984,184.875 144.829,184.117 144.875 C 183.686 144.901,177.040 146.440,169.349 148.295 M135.512 163.600 C 123.423 166.502,123.408 166.510,122.430 170.291 C 120.183 178.976,125.277 194.933,131.062 197.329 C 131.869 197.664,133.395 197.415,139.275 195.991 C 143.247 195.030,146.854 194.163,147.291 194.065 C 148.510 193.790,153.817 192.263,153.943 192.151 C 154.004 192.096,153.713 191.469,153.295 190.757 C 149.618 184.490,145.654 168.169,146.510 162.816 C 146.834 160.793,147.360 160.755,135.512 163.600 M195.594 194.276 C 194.119 194.672,188.774 195.976,183.716 197.173 C 177.912 198.548,174.337 199.576,174.022 199.963 C 173.235 200.928,174.338 207.153,175.572 208.712 C 175.779 208.972,175.832 209.487,175.691 209.855 C 175.330 210.795,168.229 222.249,167.786 222.605 C 167.655 222.711,167.479 222.975,167.395 223.193 C 167.310 223.410,166.585 224.617,165.782 225.875 C 164.980 227.132,162.603 230.920,160.500 234.291 C 158.398 237.663,154.787 243.422,152.476 247.090 C 150.166 250.758,148.276 253.842,148.276 253.944 C 148.276 254.046,146.843 256.304,145.091 258.961 C 137.492 270.490,137.194 272.128,142.197 274.884 C 146.595 277.306,148.156 276.237,153.640 267.050 C 155.589 263.784,157.831 260.249,158.621 259.195 C 159.411 258.142,160.579 256.331,161.216 255.172 C 161.853 254.013,164.279 250.048,166.609 246.360 C 173.964 234.714,175.105 232.890,178.588 227.203 L 181.992 221.648 181.994 247.701 C 181.997 279.501,181.818 278.544,187.782 278.544 C 193.845 278.544,193.521 280.254,193.494 248.373 C 193.481 232.624,193.612 221.823,193.815 222.042 C 194.273 222.538,198.851 229.874,198.851 230.112 C 198.851 230.215,199.168 230.766,199.556 231.337 C 200.464 232.672,203.127 236.778,203.633 237.624 C 203.848 237.981,204.677 239.275,205.477 240.497 C 206.277 241.720,208.863 245.852,211.224 249.680 C 213.585 253.508,216.835 258.689,218.445 261.193 C 220.055 263.698,221.698 266.342,222.097 267.069 C 222.913 268.557,224.535 271.171,225.894 273.188 C 229.602 278.693,239.330 274.018,236.274 268.199 C 234.788 265.371,231.334 259.660,230.365 258.429 C 229.695 257.578,227.203 253.687,227.203 253.492 C 227.203 253.377,226.282 251.855,225.157 250.109 C 224.031 248.363,222.284 245.556,221.275 243.870 C 220.266 242.184,218.454 239.339,217.248 237.548 C 216.043 235.757,213.187 231.188,210.903 227.395 C 208.618 223.603,206.465 220.194,206.118 219.822 C 205.771 219.449,205.245 218.673,204.949 218.097 C 204.653 217.521,203.324 215.351,201.995 213.276 C 199.720 209.721,199.612 209.451,200.146 208.636 C 202.214 205.481,202.430 199.352,200.606 195.623 C 199.429 193.219,199.480 193.232,195.594 194.276 " stroke="none" fill="#f46c6c" fill-rule="evenodd"></path><path id="path2" d="" stroke="none" fill="#e8c8e8" fill-rule="evenodd"></path><path id="path3" d="M146.475 164.368 C 146.475 165.527,146.547 166.001,146.635 165.421 C 146.722 164.842,146.722 163.894,146.635 163.314 C 146.547 162.735,146.475 163.209,146.475 164.368 M193.668 248.276 C 193.668 262.711,193.715 268.616,193.774 261.398 C 193.832 254.181,193.832 242.371,193.774 235.153 C 193.715 227.936,193.668 233.841,193.668 248.276 " stroke="none" fill="#e888ac" fill-rule="evenodd"></path><path id="path4" d="" stroke="none" fill="#e88c6c" fill-rule="evenodd"></path></g></svg>